<?xml version="1.0" standalone="no"?>
<!DOCTYPE svg PUBLIC "-//W3C//DTD SVG 20010904//EN"
 "http://www.w3.org/TR/2001/REC-SVG-20010904/DTD/svg10.dtd">
<svg version="1.0" xmlns="http://www.w3.org/2000/svg"
 width="1512.000000pt" height="390.000000pt" viewBox="0 0 1512.000000 390.000000"
 preserveAspectRatio="xMidYMid meet">

<g transform="translate(0.000000,390.000000) scale(0.100000,-0.100000)"
fill="#000000" stroke="none">
<path d="M0 1950 l0 -1950 7560 0 7560 0 0 1950 0 1950 -7560 0 -7560 0 0
-1950z m13213 1923 c-7 -2 -19 -2 -25 0 -7 3 -2 5 12 5 14 0 19 -2 13 -5z
m-7638 -1973 c3 -5 1 -10 -4 -10 -6 0 -11 5 -11 10 0 6 2 10 4 10 3 0 8 -4 11
-10z m-1861 -79 c-4 -3 -9 0 -11 7 -3 6 -8 10 -13 7 -4 -3 -14 3 -21 12 -10
12 -10 14 -1 9 7 -4 12 -2 12 6 1 7 9 3 21 -11 11 -13 17 -27 13 -30z m1946
-51 c12 -23 12 -24 -3 -11 -10 7 -17 20 -17 29 0 18 3 16 20 -18z m-1869 -65
c11 7 11 3 3 -20 -6 -14 -8 -14 -20 4 -8 11 -11 27 -7 38 7 16 8 16 11 -5 2
-12 8 -20 13 -17z m29 -49 c0 -2 7 -20 15 -39 11 -26 12 -38 3 -43 -7 -4 -8
-3 -4 4 4 7 3 12 -3 12 -6 0 -7 7 -4 17 4 11 3 14 -5 9 -7 -4 -12 -3 -12 3 0
5 -3 16 -6 25 -3 9 -1 16 5 16 6 0 11 -2 11 -4z m1910 -31 c0 -5 -5 -3 -10 5
-5 8 -10 20 -10 25 0 6 5 3 10 -5 5 -8 10 -19 10 -25z m-1864 -82 c-11 -11
-17 4 -9 23 7 18 8 18 11 1 2 -10 1 -21 -2 -24z m348 -118 c3 -8 1 -15 -4 -15
-6 0 -10 7 -10 15 0 8 2 15 4 15 2 0 6 -7 10 -15z m4761 -5 c3 -5 -1 -10 -10
-10 -9 0 -13 5 -10 10 3 6 8 10 10 10 2 0 7 -4 10 -10z m-4727 -95 c-3 -3 -9
2 -12 12 -6 14 -5 15 5 6 7 -7 10 -15 7 -18z m27 -15 c3 -5 1 -10 -4 -10 -6 0
-11 5 -11 10 0 6 2 10 4 10 3 0 8 -4 11 -10z"/>
</g>
</svg>
