<?xml version="1.0" standalone="no"?>
<!DOCTYPE svg PUBLIC "-//W3C//DTD SVG 20010904//EN"
 "http://www.w3.org/TR/2001/REC-SVG-20010904/DTD/svg10.dtd">
<svg version="1.0" xmlns="http://www.w3.org/2000/svg"
 width="1512.000000pt" height="515.000000pt" viewBox="0 0 1512.000000 515.000000"
 preserveAspectRatio="xMidYMid meet">

<g transform="translate(0.000000,515.000000) scale(0.100000,-0.100000)"
fill="#000000" stroke="none">
<path d="M0 2575 l0 -2575 7560 0 7560 0 0 2575 0 2575 -1704 0 c-1346 0
-1705 -3 -1709 -13 -4 -9 -6 -9 -6 1 -1 9 -1178 12 -5851 12 l-5850 0 0 -2575z
m11727 2493 c-3 -8 -6 -5 -6 6 -1 11 2 17 5 13 3 -3 4 -12 1 -19z m-34 -103
c-3 -9 -8 -14 -10 -11 -3 3 -2 9 2 15 9 16 15 13 8 -4z m-34 -67 c0 -31 -1
-31 -10 -10 -5 13 -7 28 -3 33 10 16 14 9 13 -23z m-5352 -2260 c-3 -7 -5 -2
-5 12 0 14 2 19 5 13 2 -7 2 -19 0 -25z m33 -9 c0 -6 -4 -7 -10 -4 -5 3 -10
11 -10 16 0 6 5 7 10 4 6 -3 10 -11 10 -16z m37 -172 c1 -26 0 -28 -7 -12 -11
26 -12 45 -2 45 4 0 8 -15 9 -33z m46 -39 c6 -22 5 -22 -8 -4 -17 22 -20 40
-6 32 5 -3 11 -16 14 -28z m-19 -24 c3 -8 2 -12 -4 -9 -6 3 -10 10 -10 16 0
14 7 11 14 -7z m-74 -34 c0 -5 -4 -10 -10 -10 -5 0 -10 5 -10 10 0 6 5 10 10
10 6 0 10 -4 10 -10z m120 -4 c0 -23 -16 -27 -17 -5 -1 10 2 19 8 19 5 0 9 -6
9 -14z m-95 -44 c-3 -3 -11 0 -18 7 -9 10 -8 11 6 5 10 -3 15 -9 12 -12z"/>
</g>
</svg>
