<svg width="32" height="32" viewBox="0 0 32 32" fill="none" xmlns="http://www.w3.org/2000/svg">
<path d="M28 25.3333V26.6667H4.00001V25.3333L6.66667 22.6667V14.6667C6.66667 10.5333 9.37334 6.89332 13.3333 5.71999V5.33332C13.3333 4.62608 13.6143 3.9478 14.1144 3.4477C14.6145 2.94761 15.2928 2.66666 16 2.66666C16.7072 2.66666 17.3855 2.94761 17.8856 3.4477C18.3857 3.9478 18.6667 4.62608 18.6667 5.33332V5.71999C22.6267 6.89332 25.3333 10.5333 25.3333 14.6667V22.6667L28 25.3333ZM18.6667 28C18.6667 28.7072 18.3857 29.3855 17.8856 29.8856C17.3855 30.3857 16.7072 30.6667 16 30.6667C15.2928 30.6667 14.6145 30.3857 14.1144 29.8856C13.6143 29.3855 13.3333 28.7072 13.3333 28M26.3333 4.25332L24.44 6.14666C25.5677 7.26055 26.4631 8.58722 27.0742 10.0498C27.6853 11.5123 28 13.0816 28 14.6667H30.6667C30.6667 10.76 29.12 6.99999 26.3333 4.25332ZM1.33334 14.6667H4.00001C4.00001 11.4667 5.28001 8.39999 7.56001 6.14666L5.66667 4.25332C4.29051 5.61542 3.19876 7.23741 2.45486 9.02507C1.71096 10.8127 1.32973 12.7304 1.33334 14.6667Z" fill="white"/>
</svg>
