<?xml version="1.0" encoding="UTF-8"?>
<!DOCTYPE svg PUBLIC "-//W3C//DTD SVG 1.1//EN" "http://www.w3.org/Graphics/SVG/1.1/DTD/svg11.dtd">
<svg xmlns="http://www.w3.org/2000/svg" version="1.1" width="843px" height="406px" style="shape-rendering:geometricPrecision; text-rendering:geometricPrecision; image-rendering:optimizeQuality; fill-rule:evenodd; clip-rule:evenodd" xmlns:xlink="http://www.w3.org/1999/xlink">
<g><path style="opacity:0.999" fill="#010101" d="M 773.5,167.5 C 777.083,176.498 779.416,185.832 780.5,195.5C 763.595,196.13 746.928,195.463 730.5,193.5C 725.592,178.925 715.925,168.925 701.5,163.5C 698.196,161.583 694.529,160.416 690.5,160C 677.165,158.428 664.165,159.762 651.5,164C 648.823,164.814 646.823,166.314 645.5,168.5C 631.242,178.514 624.242,192.347 624.5,210C 624.893,238.722 639.226,255.389 667.5,260C 683.751,262.292 699.085,259.625 713.5,252C 721.543,245.392 727.209,237.225 730.5,227.5C 746.928,225.537 763.595,224.87 780.5,225.5C 779.963,230.851 779.296,236.184 778.5,241.5C 776.215,251.069 772.049,259.736 766,267.5C 751.852,284.483 734.018,295.483 712.5,300.5C 691.941,303.704 671.275,304.371 650.5,302.5C 620.314,296.788 597.481,280.788 582,254.5C 580.864,251.904 580.031,249.237 579.5,246.5C 577.727,239.212 575.727,232.212 573.5,225.5C 568.975,163.835 597.309,127.668 658.5,117C 695.199,111.338 727.865,120.005 756.5,143C 763.622,150.267 769.289,158.433 773.5,167.5 Z"/></g>
<g><path style="opacity:0.999" fill="#010101" d="M 317.5,300.5 C 317.832,256.997 317.499,213.663 316.5,170.5C 317.935,169.015 317.768,167.682 316,166.5C 297.539,211.418 278.539,256.085 259,300.5C 241.907,301.658 224.741,301.825 207.5,301C 187.999,257.827 169.166,214.327 151,170.5C 150.333,169.833 149.667,169.167 149,168.5C 149.331,212.005 149.164,255.671 148.5,299.5C 132.911,300.484 117.244,300.817 101.5,300.5C 101.333,240.832 101.5,181.166 102,121.5C 126.761,120.339 151.594,120.173 176.5,121C 177.949,122.102 179.282,123.269 180.5,124.5C 198.312,166.447 215.812,208.447 233,250.5C 250.961,206.959 269.128,163.459 287.5,120C 313.165,119.5 338.831,119.333 364.5,119.5C 364.5,180.167 364.5,240.833 364.5,301.5C 348.658,301.83 332.991,301.496 317.5,300.5 Z"/></g>
<g><path style="opacity:1" fill="#010101" d="M 557.5,121.5 C 557.206,134.204 557.539,147.037 558.5,160C 557.833,161 557.167,162 556.5,163C 520.762,163.826 485.095,163.659 449.5,162.5C 448.172,167.288 447.505,172.454 447.5,178C 447.512,183.412 447.845,188.746 448.5,194C 483.165,194.5 517.832,194.667 552.5,194.5C 552.5,208.167 552.5,221.833 552.5,235.5C 517.484,234.84 482.817,235.507 448.5,237.5C 449.82,258.435 449.82,279.435 448.5,300.5C 431.706,301.825 415.039,301.825 398.5,300.5C 398.333,240.832 398.5,181.166 399,121.5C 451.833,120.169 504.667,120.169 557.5,121.5 Z"/></g>
<g><path style="opacity:0.996" fill="#1f1f1f" d="M 557.5,121.5 C 504.667,120.169 451.833,120.169 399,121.5C 398.5,181.166 398.333,240.832 398.5,300.5C 397.883,300.389 397.383,300.056 397,299.5C 396.833,270 396.667,240.5 396.5,211C 396.341,180.749 396.841,150.583 398,120.5C 424.596,119.835 451.262,119.502 478,119.5C 504.842,119.5 531.342,120.167 557.5,121.5 Z"/></g>
<g><path style="opacity:0.58" fill="#181818" d="M 180.5,124.5 C 179.282,123.269 177.949,122.102 176.5,121C 151.594,120.173 126.761,120.339 102,121.5C 101.5,181.166 101.333,240.832 101.5,300.5C 100.335,240.668 100.168,180.668 101,120.5C 126.428,119.339 151.928,119.172 177.5,120C 179.376,120.918 180.376,122.418 180.5,124.5 Z"/></g>
<g><path style="opacity:0.953" fill="#1a1a1a" d="M 701.5,163.5 C 682.121,158.15 663.455,159.816 645.5,168.5C 646.823,166.314 648.823,164.814 651.5,164C 664.165,159.762 677.165,158.428 690.5,160C 694.529,160.416 698.196,161.583 701.5,163.5 Z"/></g>
<g><path style="opacity:0.907" fill="#202020" d="M 773.5,167.5 C 776.089,171.02 777.922,175.02 779,179.5C 780.063,184.19 781.23,188.856 782.5,193.5C 782.392,194.442 782.059,195.275 781.5,196C 777.903,196.972 774.236,197.472 770.5,197.5C 757.135,196.663 743.802,196.33 730.5,196.5C 730.5,195.5 730.5,194.5 730.5,193.5C 746.928,195.463 763.595,196.13 780.5,195.5C 779.416,185.832 777.083,176.498 773.5,167.5 Z"/></g>
<g><path style="opacity:0.992" fill="#181818" d="M 449.5,162.5 C 448.169,172.47 448.169,182.47 449.5,192.5C 483.998,193.167 518.331,193.833 552.5,194.5C 517.832,194.667 483.165,194.5 448.5,194C 447.845,188.746 447.512,183.412 447.5,178C 447.505,172.454 448.172,167.288 449.5,162.5 Z"/></g>
<g><path style="opacity:0.996" fill="#1c1c1c" d="M 778.5,241.5 C 779.296,236.184 779.963,230.851 780.5,225.5C 763.595,224.87 746.928,225.537 730.5,227.5C 730.5,226.5 730.5,225.5 730.5,224.5C 747.503,224.333 764.503,224.5 781.5,225C 782.059,225.725 782.392,226.558 782.5,227.5C 781.452,232.374 780.119,237.041 778.5,241.5 Z"/></g>
<g><path style="opacity:0.984" fill="#232323" d="M 573.5,225.5 C 575.727,232.212 577.727,239.212 579.5,246.5C 575.909,240.05 573.909,233.05 573.5,225.5 Z"/></g>
<g><path style="opacity:0.997" fill="#252525" d="M 552.5,194.5 C 553.117,194.611 553.617,194.944 554,195.5C 554.667,208.833 554.667,222.167 554,235.5C 553.25,236.126 552.416,236.626 551.5,237C 517.168,237.5 482.835,237.667 448.5,237.5C 482.817,235.507 517.484,234.84 552.5,235.5C 552.5,221.833 552.5,208.167 552.5,194.5 Z"/></g>
<g><path style="opacity:0.95" fill="#1f1f1f" d="M 316.5,170.5 C 317.499,213.663 317.832,256.997 317.5,300.5C 316.883,300.389 316.383,300.056 316,299.5C 315.694,256.499 315.861,213.499 316.5,170.5 Z"/></g>
<g><path style="opacity:0.344" fill="#3e3e3e" d="M 148.5,299.5 C 141.03,300.831 133.196,301.498 125,301.5C 116.993,301.5 109.159,301.166 101.5,300.5C 117.244,300.817 132.911,300.484 148.5,299.5 Z"/></g>
<g><path style="opacity:0.991" fill="#212121" d="M 712.5,300.5 C 710.123,301.887 707.457,302.721 704.5,303C 686.315,306.449 668.315,306.282 650.5,302.5C 671.275,304.371 691.941,303.704 712.5,300.5 Z"/></g>
</svg>
